<svg xmlns="http://www.w3.org/2000/svg" xmlns:xlink="http://www.w3.org/1999/xlink" width="561" height="340" viewBox="0 0 561 340">
  <defs>
    <clipPath id="clip-path">
      <rect id="base" width="561" height="340" rx="4" transform="translate(40 202)" fill="#3b3b43"/>
    </clipPath>
  </defs>
  <g id="Cards" transform="translate(-40 -202)">
    <g id="_02" data-name="02">
      <g id="Base-3" data-name="Base">
        <g id="base-4" data-name="base">
          <rect id="base-5" data-name="base" width="561" height="340" rx="4" transform="translate(40 202)" fill="#3b3b43"/>
          <g id="Clip" clip-path="url(#clip-path)">
            <circle id="circle" cx="158.5" cy="158.5" r="158.5" transform="translate(11 111)" fill="#212126" opacity="0.4"/>
            <circle id="circle-2" data-name="circle" cx="221.5" cy="221.5" r="221.5" transform="translate(-29 330)" fill="#212126" opacity="0.2"/>
            <circle id="circle-3" data-name="circle" cx="221.5" cy="221.5" r="221.5" transform="translate(256 88)" fill="#212126" opacity="0.4"/>
          </g>
        </g>
      </g>
      <g id="Text">
        <text id="EXPIRES_01_22" data-name="EXPIRES
01/22" transform="translate(553 460)" fill="#a5a5b2" font-size="14" font-family="SegoeUI, Segoe UI" letter-spacing="0.04em"><tspan x="-49.8" y="0">EXPIRES</tspan><tspan fill="#fff" font-size="24"><tspan x="-64.942" y="30">01/22</tspan></tspan></text>
        <text id="XXXX_XXXX_XXXX_7293_CARD_HOLDER_WILLIAM_CROWN" data-name="XXXX     XXXX     XXXX     7293

CARD HOLDER
WILLIAM CROWN" transform="translate(86 391)" fill="#fff" font-size="34" font-family="SegoeUI, Segoe UI" letter-spacing="0.04em"><tspan x="0" y="0" xml:space="preserve">XXXX     XXXX     XXXX     7293</tspan><tspan x="0" y="40.8"></tspan><tspan fill="#a5a5b2" font-size="14"><tspan x="0" y="81.6">CARD HOLDER</tspan></tspan><tspan font-size="24"><tspan x="0" y="122.4">WILLIAM CROWN</tspan></tspan></text>
        <text id="_" data-name="" transform="translate(573 245)" fill="#a5a5b2" font-size="30" font-family="FontAwesome5Free-Solid, 'Font Awesome \35  Free'" letter-spacing="0.1em"><tspan x="0" y="0"></tspan></text>
      </g>
      <g id="Logo">
        <g id="logo-2" data-name="logo" transform="translate(68.706 200.411)">
          <g id="Group_2" data-name="Group 2">
            <g id="Group_1" data-name="Group 1">
              <path id="Path_1" data-name="Path 1" d="M63.315,87.957H53.524l6.12-36.711h9.792Z" fill="#0055a5"/>
              <path id="Path_2" data-name="Path 2" d="M45.286,51.247,35.95,76.5l-1.1-5.437v0l-3.3-16.507s-.4-3.306-4.645-3.306H11.475l-.18.621a37.11,37.11,0,0,1,10.242,4.2l8.507,31.892h10.2l15.579-36.71Z" fill="#0055a5"/>
              <path id="Path_3" data-name="Path 3" d="M122.3,87.957h8.991l-7.839-36.71h-7.872a4.489,4.489,0,0,0-4.521,2.736L96.46,87.957h10.205l2.042-5.452h12.448ZM111.529,74.971l5.146-13.739,2.894,13.739Z" fill="#0055a5"/>
              <path id="Path_4" data-name="Path 4" d="M97.226,60.075l1.4-7.885a28.879,28.879,0,0,0-8.807-1.6c-4.859,0-16.4,2.074-16.4,12.153,0,9.485,13.542,9.6,13.542,14.582s-12.147,4.09-16.155.949l-1.457,8.242A27.99,27.99,0,0,0,80.4,88.589c6.681,0,16.763-3.379,16.763-12.568,0-9.545-13.665-10.434-13.665-14.583S93.036,57.821,97.226,60.075Z" fill="#0055a5"/>
            </g>
            <path id="Path_5" data-name="Path 5" d="M34.847,71.06l-3.3-16.507s-.4-3.306-4.645-3.306H11.475l-.18.621A38.388,38.388,0,0,1,25.828,58.99,28.611,28.611,0,0,1,34.847,71.06Z" fill="#fc9220"/>
          </g>
        </g>
      </g>
    </g>
    <g id="_01" data-name="01">
      <g id="Base-6" data-name="Base">
        <g id="base-7" data-name="base">
          <rect id="base-8" data-name="base" width="561" height="340" rx="4" transform="translate(40 202)" fill="#3b3b43"/>
          <g id="Clip-2" data-name="Clip" clip-path="url(#clip-path)">
            <circle id="circle-4" data-name="circle" cx="158.5" cy="158.5" r="158.5" transform="translate(11 111)" fill="#212126" opacity="0.4"/>
            <circle id="circle-5" data-name="circle" cx="221.5" cy="221.5" r="221.5" transform="translate(-29 330)" fill="#212126" opacity="0.2"/>
            <circle id="circle-6" data-name="circle" cx="221.5" cy="221.5" r="221.5" transform="translate(256 88)" fill="#212126" opacity="0.4"/>
          </g>
        </g>
      </g>
      <g id="Text-2" data-name="Text">
        <text id="EXPIRES_01_22-2" data-name="EXPIRES
01/22" transform="translate(553 460)" fill="#a5a5b2" font-size="14" font-family="SegoeUI, Segoe UI" letter-spacing="0.04em"><tspan x="-49.8" y="0">EXPIRES</tspan><tspan fill="#fff" font-size="24"><tspan x="-64.942" y="30">01/22</tspan></tspan></text>
        <text id="XXXX_XXXX_XXXX_7293_CARD_HOLDER_WILLIAM_CROWN-2" data-name="XXXX     XXXX     XXXX     7293

CARD HOLDER
WILLIAM CROWN" transform="translate(86 391)" fill="#fff" font-size="34" font-family="SegoeUI, Segoe UI" letter-spacing="0.04em"><tspan x="0" y="0" xml:space="preserve">XXXX     XXXX     XXXX     7293</tspan><tspan x="0" y="40.8"></tspan><tspan fill="#a5a5b2" font-size="14"><tspan x="0" y="81.6">CARD HOLDER</tspan></tspan><tspan font-size="24"><tspan x="0" y="122.4">WILLIAM CROWN</tspan></tspan></text>
        <text id="_2" data-name="" transform="translate(573 245)" fill="#a5a5b2" font-size="30" font-family="FontAwesome5Free-Solid, 'Font Awesome \35  Free'" letter-spacing="0.1em"><tspan x="0" y="0"></tspan></text>
      </g>
    </g>
  </g>
</svg>
